<svg xmlns="http://www.w3.org/2000/svg" viewBox="0 0 2007.63 2216.84"><defs><style>.cls-1{isolation:isolate;}.cls-2{opacity:0.2;mix-blend-mode:screen;}.cls-3{opacity:0.34;}.cls-4{fill:#7de2e9;}</style></defs><title>資產 1</title><g class="cls-1"><g id="圖層_2" data-name="圖層 2"><g id="Active"><g id="Background"><g class="cls-2"><g class="cls-3"><path class="cls-4" d="M853.76,873.4H705.38a1.68,1.68,0,0,1-1.68-1.67V359.83L596.28,252.41a1.67,1.67,0,0,1,0-2.37,1.68,1.68,0,0,1,2.37,0L706.56,358a1.66,1.66,0,0,1,.49,1.19V870.05h146l86.69-86.7V157.5L785.62,3.35H625.14L517.72,110.77a1.67,1.67,0,0,1-1.19.5H382.33l-140,140L534.09,542.94H611a1.67,1.67,0,0,1,1.67,1.67V865a1.68,1.68,0,1,1-3.35,0V546.29H533.39a1.68,1.68,0,0,1-1.18-.49L238.82,252.41a1.64,1.64,0,0,1-.49-1.18,1.66,1.66,0,0,1,.49-1.19L380.45,108.4a1.71,1.71,0,0,1,1.19-.49h134.2L623.26.49A1.68,1.68,0,0,1,624.44,0H786.31a1.71,1.71,0,0,1,1.19.49L942.62,155.62a1.65,1.65,0,0,1,.5,1.18V784.05a1.65,1.65,0,0,1-.5,1.18l-87.68,87.68A1.64,1.64,0,0,1,853.76,873.4Z"/><path class="cls-4" d="M285,994.81H199.54a1.66,1.66,0,0,1-1.19-.5l-96.67-96.67a1.64,1.64,0,0,1-.49-1.18V772.81a1.66,1.66,0,0,1,.49-1.19L248.93,624.37a1.68,1.68,0,0,1,2.38,2.37L104.54,773.5V895.76l95.69,95.69h84l134.4-134.4a1.64,1.64,0,0,1,1.2-.49c.72,0,70.6.6,84.63,0,3.64-9.52,1.51-115.75-.86-186.49L189.36,355.83a1.68,1.68,0,0,1,2.37-2.37L506.47,668.2a1.63,1.63,0,0,1,.49,1.13c0,.47,1.6,47.69,2.39,94.33,1.61,96-1.36,96.12-4,96.25-11.77.61-76.85.08-84.82,0L286.15,994.31A1.65,1.65,0,0,1,285,994.81Z"/><path class="cls-4" d="M109.61,671.07a1.69,1.69,0,0,1-1.19-2.87l95.49-95.48L135.4,504.21a1.71,1.71,0,0,1-.49-1.19,1.68,1.68,0,0,1,.49-1.18l54-54a1.68,1.68,0,1,1,2.37,2.37L139,503l68.51,68.51a1.68,1.68,0,0,1,0,2.37l-96.68,96.67A1.64,1.64,0,0,1,109.61,671.07Z"/><path class="cls-4" d="M840.27,752H794.74a1.68,1.68,0,0,1-1.67-1.68V321.05L657,185a1.68,1.68,0,0,1,0-2.37,1.67,1.67,0,0,1,2.37,0L795.93,319.17a1.71,1.71,0,0,1,.49,1.19V748.65h43.16l31.54-31.55a1.68,1.68,0,0,1,2.37,0,1.67,1.67,0,0,1,0,2.37l-32,32A1.71,1.71,0,0,1,840.27,752Z"/><path class="cls-4" d="M557,468.73a1.72,1.72,0,0,1-1.19-.49L360.22,272.64a1.68,1.68,0,0,1,0-2.37l67.45-67.44a1.64,1.64,0,0,1,1.18-.49H531.57L643.49,90.42a1.66,1.66,0,0,1,1.19-.49H743.6a1.68,1.68,0,1,1,0,3.35H645.37L533.45,205.2a1.68,1.68,0,0,1-1.18.49H429.55l-65.77,65.77,194.4,194.41a1.68,1.68,0,0,1-1.18,2.86Z"/><path class="cls-4" d="M602,410.28a1.64,1.64,0,0,1-1.18-.5L452.4,261.4a1.67,1.67,0,0,1,0-2.37,1.68,1.68,0,0,1,2.37,0L603.15,407.41a1.69,1.69,0,0,1-1.19,2.87Z"/><path class="cls-4" d="M872.31,613.74a1.68,1.68,0,0,1-1.68-1.68V284L737.92,151.24a1.67,1.67,0,0,1,0-2.37,1.68,1.68,0,0,1,2.37,0l133.2,133.21a1.64,1.64,0,0,1,.49,1.18v328.8A1.68,1.68,0,0,1,872.31,613.74Z"/><path class="cls-4" d="M175.93,880.15a1.68,1.68,0,0,1-1.68-1.68V797.54a1.71,1.71,0,0,1,.49-1.19L289.4,681.69a1.68,1.68,0,0,1,2.37,0,1.67,1.67,0,0,1,0,2.37L177.61,798.23v80.24A1.68,1.68,0,0,1,175.93,880.15Z"/><path class="cls-4" d="M251.81,875.09a1.68,1.68,0,0,1-1.19-2.86l99.48-99.48a1.67,1.67,0,0,1,1.19-.5h45.53V676.83L215.21,495.22a1.68,1.68,0,0,1,0-2.37,1.67,1.67,0,0,1,2.37,0L399.69,675a1.68,1.68,0,0,1,.49,1.18v97.8a1.68,1.68,0,0,1-1.68,1.68H352l-99,99A1.65,1.65,0,0,1,251.81,875.09Z"/><path class="cls-4" d="M503.88,1760.32a1.68,1.68,0,0,1-1.67-1.68V1613.48L350.59,1461.87H224.83a1.71,1.71,0,0,1-1.19-.49L2.76,1240.49a1.64,1.64,0,0,1-.49-1.18V948.17a1.68,1.68,0,0,1,1.67-1.68H55.65a1.71,1.71,0,0,1,1.19.49l125.4,125.41h147L461.39,940.24a1.65,1.65,0,0,1,1.18-.5H608.71a1.65,1.65,0,0,1,1.18.5l135.53,135.52H936.94a1.68,1.68,0,0,1,1.68,1.68v230.44a1.68,1.68,0,0,1-.49,1.18l-69.21,69.2v221.88a1.68,1.68,0,0,1-1.67,1.68h-69.7a1.68,1.68,0,0,1-1.18-.49L679.46,1484.42a1.68,1.68,0,0,1-.49-1.18V1339.35a1.68,1.68,0,1,1,3.36,0v143.19l115.92,115.93h67.32v-220.9a1.71,1.71,0,0,1,.49-1.19l69.21-69.2V1079.11H744.72a1.64,1.64,0,0,1-1.18-.49L608,943.1H463.27L331.12,1075.25a1.71,1.71,0,0,1-1.19.49H181.55a1.71,1.71,0,0,1-1.19-.49L55,949.84H5.62v288.77l219.9,219.9H351.29a1.65,1.65,0,0,1,1.18.5l152.6,152.59a1.71,1.71,0,0,1,.49,1.19v145.85A1.68,1.68,0,0,1,503.88,1760.32Z"/><path class="cls-4" d="M809.92,1510.77a1.68,1.68,0,0,1-1.19-.5l-70.81-70.81a1.66,1.66,0,0,1-.49-1.19V1209a1.68,1.68,0,1,1,3.35,0v228.62l70.32,70.32a1.67,1.67,0,0,1,0,2.37A1.64,1.64,0,0,1,809.92,1510.77Z"/><path class="cls-4" d="M795.31,1415.22a1.68,1.68,0,0,1-1.68-1.68v-94.42a1.71,1.71,0,0,1,.49-1.19l64.71-64.7v-94.3H797.55a1.68,1.68,0,0,1,0-3.36h63a1.68,1.68,0,0,1,1.68,1.68v96.67a1.71,1.71,0,0,1-.49,1.19L797,1319.81v93.73A1.68,1.68,0,0,1,795.31,1415.22Z"/><path class="cls-4" d="M534.52,1543.36a1.67,1.67,0,0,1-1.19-.49L369.7,1379.25H253.49a1.68,1.68,0,0,1-1.18-.49L83.69,1210.14a1.68,1.68,0,0,1-.49-1.18v-134.9a1.68,1.68,0,0,1,3.36,0v134.2l167.63,167.63H370.4a1.68,1.68,0,0,1,1.18.49L535.7,1540.5a1.68,1.68,0,0,1-1.18,2.86Z"/><path class="cls-4" d="M681.77,1126.33a1.64,1.64,0,0,1-1.18-.5l-104.05-104H478.31a1.68,1.68,0,0,1,0-3.35h98.92a1.71,1.71,0,0,1,1.19.49L683,1123.46a1.69,1.69,0,0,1-1.19,2.87Z"/><path class="cls-4" d="M612.64,1492.22a1.72,1.72,0,0,1-1.19-.49L407.92,1288.19H270.35a1.64,1.64,0,0,1-1.18-.49L153.39,1171.92a1.64,1.64,0,0,1-.49-1.18v-45a1.68,1.68,0,0,1,3.35,0V1170l114.8,114.8H408.62a1.68,1.68,0,0,1,1.18.49l204,204a1.68,1.68,0,0,1,0,2.37A1.72,1.72,0,0,1,612.64,1492.22Z"/><path class="cls-4" d="M613.2,1408.47a1.67,1.67,0,0,1-1.67-1.67V1254.62L432.16,1075.25a1.68,1.68,0,0,1,0-2.37,1.67,1.67,0,0,1,2.37,0l179.86,179.86a1.68,1.68,0,0,1,.49,1.18V1406.8A1.68,1.68,0,0,1,613.2,1408.47Z"/><path class="cls-4" d="M673.91,1280.33a1.68,1.68,0,0,1-1.68-1.68v-69L555.81,1093.23a1.68,1.68,0,0,1,2.37-2.37l116.91,116.91a1.71,1.71,0,0,1,.49,1.19v69.69A1.68,1.68,0,0,1,673.91,1280.33Z"/><path class="cls-4" d="M435.6,1224.12a1.67,1.67,0,0,1-1.19-.49l-82.69-82.69H215.27a1.68,1.68,0,0,1,0-3.36H352.41a1.67,1.67,0,0,1,1.19.5l83.18,83.18a1.68,1.68,0,0,1-1.18,2.86Z"/><path class="cls-4" d="M540.14,1326.41a1.67,1.67,0,0,1-1.19-.49l-64.07-64.07a1.68,1.68,0,0,1,2.37-2.37l64.07,64.07a1.68,1.68,0,0,1-1.18,2.86Z"/><path class="cls-4" d="M693.15,2216.84h-126a1.69,1.69,0,0,1-1.19-.49L412.35,2062.77H246.75a1.71,1.71,0,0,1-1.19-.49L129.75,1946.46a1.65,1.65,0,0,1-.5-1.18V1702L.49,1573.24a1.68,1.68,0,0,1-.49-1.18V1357.34a1.68,1.68,0,1,1,3.35,0v214l128.77,128.76a1.71,1.71,0,0,1,.49,1.19v243.27l114.83,114.83H413a1.66,1.66,0,0,1,1.19.5l153.58,153.58H692.46l71.1-71.1V1982.75l-189.2-189.2a1.71,1.71,0,0,1-.49-1.19v-170.3a1.68,1.68,0,0,1,.49-1.18l79.25-79.25a1.67,1.67,0,0,1,2.37,0,1.68,1.68,0,0,1,0,2.37l-78.76,78.76v168.91l189.2,189.2a1.64,1.64,0,0,1,.49,1.18v161a1.66,1.66,0,0,1-.49,1.19l-72.08,72.08A1.71,1.71,0,0,1,693.15,2216.84Z"/><path class="cls-4" d="M296.49,1966.87a1.72,1.72,0,0,1-1.19-.49l-71.66-71.66a1.71,1.71,0,0,1-.49-1.19V1670L73.58,1520.39a1.65,1.65,0,0,1-.5-1.18V1414.67a1.68,1.68,0,1,1,3.36,0v103.84L226,1668.09a1.64,1.64,0,0,1,.49,1.18v223.57L297.67,1964a1.68,1.68,0,0,1-1.18,2.86Z"/><path class="cls-4" d="M297.33,1858.11a1.67,1.67,0,0,1-1.67-1.67V1816a1.66,1.66,0,0,1,.49-1.19l57.33-57.32a1.65,1.65,0,0,1,1.18-.5h65.77V1647.35a1.68,1.68,0,0,1,3.35,0v111.29a1.68,1.68,0,0,1-1.67,1.68H355.36L299,1816.66v39.78A1.68,1.68,0,0,1,297.33,1858.11Z"/><path class="cls-4" d="M638.78,2135.48a1.68,1.68,0,0,1-1.19-2.86L675,2095.17v-77.86L518.72,1861a1.67,1.67,0,0,1,0-2.37,1.68,1.68,0,0,1,2.37,0L677.9,2015.43a1.71,1.71,0,0,1,.49,1.19v79.25a1.68,1.68,0,0,1-.49,1.18L640,2135A1.67,1.67,0,0,1,638.78,2135.48Z"/><path class="cls-4" d="M565.43,2102.6a1.67,1.67,0,0,1-1.19-.49L445,1982.89H354.66a1.68,1.68,0,1,1,0-3.35h91a1.66,1.66,0,0,1,1.19.49l119.71,119.71a1.67,1.67,0,0,1,0,2.37A1.63,1.63,0,0,1,565.43,2102.6Z"/><path class="cls-4" d="M590.72,2031.22a1.63,1.63,0,0,1-1.18-.49L468.62,1909.82H332.18a1.68,1.68,0,1,1,0-3.35H469.32a1.64,1.64,0,0,1,1.18.49l121.41,121.4a1.68,1.68,0,0,1-1.19,2.86Z"/><path class="cls-4" d="M426.6,1837.88H350.16a1.68,1.68,0,0,1,0-3.35h75.75L458,1802.42a1.67,1.67,0,0,1,2.37,0,1.68,1.68,0,0,1,0,2.37l-32.6,32.6A1.71,1.71,0,0,1,426.6,1837.88Z"/><path class="cls-4" d="M302.39,1723.22a1.68,1.68,0,0,1-1.68-1.68v-88.65L159.58,1495.11a1.68,1.68,0,1,1,2.35-2.39L303.56,1631a1.65,1.65,0,0,1,.51,1.2v89.36A1.68,1.68,0,0,1,302.39,1723.22Z"/><path class="cls-4" d="M381.64,1583.83a1.67,1.67,0,0,1-1.19-.49l-64.7-64.71H260.24a1.68,1.68,0,1,1,0-3.35h56.2a1.71,1.71,0,0,1,1.19.49l65.2,65.2a1.68,1.68,0,0,1-1.19,2.86Z"/><path class="cls-4" d="M840.27,2127.9a1.68,1.68,0,0,1-1.68-1.68V1998.07a1.65,1.65,0,0,1,.5-1.18l48.4-48.41V1676H766.08a1.71,1.71,0,0,1-1.19-.49l-62.38-62.39a1.68,1.68,0,0,1,2.37-2.37l61.89,61.9h122.4a1.68,1.68,0,0,1,1.68,1.67v274.84a1.67,1.67,0,0,1-.5,1.19L842,1998.77v127.45A1.68,1.68,0,0,1,840.27,2127.9Z"/><path class="cls-4" d="M796.43,1908.7a1.67,1.67,0,0,1-1.18-.49L651.92,1764.88a1.68,1.68,0,0,1,2.37-2.37L794.75,1903V1746.83H725.61a1.65,1.65,0,0,1-1.18-.5l-91-91a1.67,1.67,0,0,1,0-2.37,1.68,1.68,0,0,1,2.37,0l90.56,90.56h70.12a1.68,1.68,0,0,1,1.68,1.68V1907a1.68,1.68,0,0,1-1,1.55A1.78,1.78,0,0,1,796.43,1908.7Z"/><path class="cls-4" d="M921.21,1004.92H762.71a1.66,1.66,0,0,1-1.19-.49l-53.95-54a1.65,1.65,0,0,1-.5-1.18V932.43a1.68,1.68,0,1,1,3.36,0v16.16l53,53H919.53V922.31a1.68,1.68,0,0,1,.49-1.18l30.35-30.35a1.68,1.68,0,1,1,2.37,2.37L922.88,923v80.24A1.67,1.67,0,0,1,921.21,1004.92Z"/><path class="cls-4" d="M855.45,945.06h-75a1.64,1.64,0,0,1-1.18-.49L758.15,923.5a1.68,1.68,0,0,1,2.37-2.37l20.59,20.58h74.34a1.68,1.68,0,0,1,0,3.35Z"/><path class="cls-4" d="M1302.26,873.4H1153.87a1.64,1.64,0,0,1-1.18-.49L1065,785.23a1.68,1.68,0,0,1-.49-1.18V156.8a1.68,1.68,0,0,1,.49-1.18L1220.14.49a1.68,1.68,0,0,1,1.18-.49h161.87a1.71,1.71,0,0,1,1.19.49L1491.8,107.91H1626a1.68,1.68,0,0,1,1.18.49L1768.82,250a1.68,1.68,0,0,1,0,2.37L1475.43,545.8a1.69,1.69,0,0,1-1.19.49h-75.88V865a1.68,1.68,0,1,1-3.36,0V544.61a1.68,1.68,0,0,1,1.68-1.67h76.87l291.71-291.71-140-140H1491.11a1.66,1.66,0,0,1-1.19-.5L1382.5,3.35H1222L1067.87,157.5V783.35l86.7,86.7h146V359.14a1.71,1.71,0,0,1,.49-1.19L1409,250a1.68,1.68,0,0,1,2.37,0,1.67,1.67,0,0,1,0,2.37L1303.93,359.83v511.9A1.67,1.67,0,0,1,1302.26,873.4Z"/><path class="cls-4" d="M1808.1,994.81h-85.43a1.67,1.67,0,0,1-1.19-.5l-134.4-134.4h-84.74a2.09,2.09,0,0,1-1.51-.66c-6-6.24-1.19-159.3-.16-189.92a1.67,1.67,0,0,1,.49-1.13l314.75-314.74a1.67,1.67,0,0,1,2.37,0,1.68,1.68,0,0,1,0,2.37L1504,670.11c-2.37,70.65-4.5,176.7-.89,186.45h84.67a1.68,1.68,0,0,1,1.18.49l134.4,134.4h84.05l95.69-95.69V773.5L1756.33,626.74a1.68,1.68,0,0,1,0-2.37,1.67,1.67,0,0,1,2.37,0L1906,771.62a1.71,1.71,0,0,1,.49,1.19V896.46a1.68,1.68,0,0,1-.49,1.18l-96.67,96.67A1.67,1.67,0,0,1,1808.1,994.81Z"/><path class="cls-4" d="M1898,671.07a1.68,1.68,0,0,1-1.19-.5l-96.67-96.67a1.64,1.64,0,0,1-.49-1.18,1.66,1.66,0,0,1,.49-1.19L1868.68,503l-52.77-52.77a1.67,1.67,0,0,1,0-2.37,1.68,1.68,0,0,1,2.37,0l54,54a1.65,1.65,0,0,1,.5,1.18,1.67,1.67,0,0,1-.5,1.19l-68.51,68.51,95.49,95.48a1.69,1.69,0,0,1-1.18,2.87Z"/><path class="cls-4" d="M1212.89,752h-45.52a1.69,1.69,0,0,1-1.19-.49l-32-32a1.68,1.68,0,0,1,2.37-2.37l31.55,31.55h43.15V320.36a1.67,1.67,0,0,1,.5-1.19L1348.28,182.6a1.68,1.68,0,1,1,2.37,2.37L1214.57,321.05V750.32A1.68,1.68,0,0,1,1212.89,752Z"/><path class="cls-4" d="M1450.64,468.73a1.72,1.72,0,0,1-1.19-.49,1.68,1.68,0,0,1,0-2.37l194.41-194.41-65.77-65.77H1475.37a1.71,1.71,0,0,1-1.19-.49L1362.26,93.28H1264a1.68,1.68,0,1,1,0-3.35H1363a1.64,1.64,0,0,1,1.18.49l111.92,111.92h102.72a1.66,1.66,0,0,1,1.19.49l67.45,67.44a1.71,1.71,0,0,1,.49,1.19,1.68,1.68,0,0,1-.49,1.18l-195.6,195.6A1.67,1.67,0,0,1,1450.64,468.73Z"/><path class="cls-4" d="M1405.67,410.28a1.64,1.64,0,0,1-1.18-.5,1.67,1.67,0,0,1,0-2.37L1552.87,259a1.68,1.68,0,0,1,2.37,0,1.67,1.67,0,0,1,0,2.37L1406.86,409.78A1.68,1.68,0,0,1,1405.67,410.28Z"/><path class="cls-4" d="M1135.33,613.74a1.68,1.68,0,0,1-1.68-1.68V283.26a1.68,1.68,0,0,1,.49-1.18l133.21-133.21a1.68,1.68,0,0,1,2.37,2.37L1137,284v328.1A1.68,1.68,0,0,1,1135.33,613.74Z"/><path class="cls-4" d="M1831.71,880.15a1.68,1.68,0,0,1-1.68-1.68V798.23L1715.86,684.06a1.68,1.68,0,0,1,2.37-2.37l114.66,114.66a1.66,1.66,0,0,1,.49,1.19v80.93A1.68,1.68,0,0,1,1831.71,880.15Z"/><path class="cls-4" d="M1755.83,875.09a1.67,1.67,0,0,1-1.19-.49l-99-99h-46.51a1.68,1.68,0,0,1-1.68-1.68v-97.8A1.68,1.68,0,0,1,1608,675l182.1-182.1a1.68,1.68,0,1,1,2.37,2.37L1610.81,676.83v95.42h45.54a1.65,1.65,0,0,1,1.18.5L1757,872.23a1.67,1.67,0,0,1,0,2.37A1.63,1.63,0,0,1,1755.83,875.09Z"/><path class="cls-4" d="M1503.75,1760.32a1.68,1.68,0,0,1-1.68-1.68V1612.79a1.71,1.71,0,0,1,.49-1.19L1655.16,1459a1.67,1.67,0,0,1,1.19-.5h125.76l219.9-219.9V949.84h-49.33l-125.41,125.41a1.69,1.69,0,0,1-1.19.49H1677.7a1.68,1.68,0,0,1-1.18-.49L1544.37,943.1H1399.62L1264.1,1078.62a1.66,1.66,0,0,1-1.19.49H1072.37v228.07l69.2,69.2a1.66,1.66,0,0,1,.49,1.19v220.9h67.33l115.92-115.93V1339.35a1.68,1.68,0,1,1,3.35,0v143.89a1.64,1.64,0,0,1-.49,1.18l-116.9,116.91a1.71,1.71,0,0,1-1.19.49h-69.69a1.68,1.68,0,0,1-1.68-1.68V1378.26l-69.2-69.2a1.64,1.64,0,0,1-.49-1.18V1077.44a1.68,1.68,0,0,1,1.67-1.68h191.53l135.52-135.52a1.67,1.67,0,0,1,1.19-.5h146.13a1.69,1.69,0,0,1,1.19.5l132.15,132.15h147L1950.8,947a1.68,1.68,0,0,1,1.18-.49h51.71a1.68,1.68,0,0,1,1.68,1.68v291.14a1.68,1.68,0,0,1-.49,1.18L1784,1461.38a1.68,1.68,0,0,1-1.18.49H1657l-151.61,151.61v145.16A1.68,1.68,0,0,1,1503.75,1760.32Z"/><path class="cls-4" d="M1197.72,1510.77a1.69,1.69,0,0,1-1.19-2.87l70.33-70.32V1209a1.68,1.68,0,1,1,3.35,0v229.31a1.71,1.71,0,0,1-.49,1.19l-70.82,70.81A1.68,1.68,0,0,1,1197.72,1510.77Z"/><path class="cls-4" d="M1212.33,1415.22a1.68,1.68,0,0,1-1.68-1.68v-93.73l-64.7-64.7a1.67,1.67,0,0,1-.5-1.19v-96.67a1.68,1.68,0,0,1,1.68-1.68h62.95a1.68,1.68,0,0,1,0,3.36h-61.27v94.3l64.7,64.7a1.66,1.66,0,0,1,.49,1.19v94.42A1.68,1.68,0,0,1,1212.33,1415.22Z"/><path class="cls-4" d="M1473.12,1543.36a1.68,1.68,0,0,1-1.19-2.86l164.12-164.12a1.69,1.69,0,0,1,1.19-.49h116.21l167.63-167.63v-134.2a1.68,1.68,0,0,1,3.35,0V1209a1.64,1.64,0,0,1-.49,1.18l-168.61,168.62a1.71,1.71,0,0,1-1.19.49H1637.93L1474.3,1542.87A1.63,1.63,0,0,1,1473.12,1543.36Z"/><path class="cls-4" d="M1325.86,1126.33a1.64,1.64,0,0,1-1.18-.5,1.67,1.67,0,0,1,0-2.37l104.54-104.54a1.68,1.68,0,0,1,1.18-.49h98.92a1.68,1.68,0,1,1,0,3.35H1431.1l-104,104A1.68,1.68,0,0,1,1325.86,1126.33Z"/><path class="cls-4" d="M1395,1492.22a1.69,1.69,0,0,1-1.18-.49,1.67,1.67,0,0,1,0-2.37l204-204a1.71,1.71,0,0,1,1.19-.49h137.57l114.8-114.8v-44.27a1.68,1.68,0,0,1,3.35,0v45a1.68,1.68,0,0,1-.49,1.18L1738.47,1287.7a1.66,1.66,0,0,1-1.19.49H1599.71l-203.53,203.54A1.72,1.72,0,0,1,1395,1492.22Z"/><path class="cls-4" d="M1394.43,1408.47a1.67,1.67,0,0,1-1.67-1.67V1253.92a1.64,1.64,0,0,1,.49-1.18l179.85-179.86a1.68,1.68,0,0,1,2.37,2.37l-179.36,179.37V1406.8A1.68,1.68,0,0,1,1394.43,1408.47Z"/><path class="cls-4" d="M1333.73,1280.33a1.68,1.68,0,0,1-1.68-1.68V1209a1.71,1.71,0,0,1,.49-1.19l116.91-116.91a1.68,1.68,0,0,1,2.37,0,1.67,1.67,0,0,1,0,2.37l-116.41,116.42v69A1.68,1.68,0,0,1,1333.73,1280.33Z"/><path class="cls-4" d="M1572,1224.12a1.68,1.68,0,0,1-1.19-2.86l83.19-83.18a1.65,1.65,0,0,1,1.18-.5h137.14a1.68,1.68,0,0,1,0,3.36H1655.92l-82.69,82.69A1.67,1.67,0,0,1,1572,1224.12Z"/><path class="cls-4" d="M1467.5,1326.41a1.68,1.68,0,0,1-1.19-2.86l64.08-64.07a1.67,1.67,0,0,1,2.37,0,1.68,1.68,0,0,1,0,2.37l-64.08,64.07A1.63,1.63,0,0,1,1467.5,1326.41Z"/><path class="cls-4" d="M1440.52,2216.84h-126a1.68,1.68,0,0,1-1.18-.49l-72.09-72.08a1.71,1.71,0,0,1-.49-1.19v-161a1.68,1.68,0,0,1,.49-1.18l189.2-189.2V1622.76L1351.66,1544a1.68,1.68,0,0,1,2.37-2.37l79.24,79.25a1.65,1.65,0,0,1,.5,1.18v170.3a1.67,1.67,0,0,1-.5,1.19l-189.19,189.2v159.64l71.1,71.1h124.65l153.58-153.58a1.65,1.65,0,0,1,1.18-.5h165.6L1875,1944.58V1701.31a1.66,1.66,0,0,1,.49-1.19l128.76-128.76v-214a1.68,1.68,0,1,1,3.35,0v214.72a1.64,1.64,0,0,1-.49,1.18L1878.38,1702v243.28a1.68,1.68,0,0,1-.49,1.18l-115.82,115.82a1.68,1.68,0,0,1-1.18.49h-165.6l-153.58,153.58A1.71,1.71,0,0,1,1440.52,2216.84Z"/><path class="cls-4" d="M1711.15,1966.87a1.72,1.72,0,0,1-1.19-.49,1.68,1.68,0,0,1,0-2.37l71.17-71.17V1669.27a1.68,1.68,0,0,1,.49-1.18l149.58-149.58V1414.67a1.68,1.68,0,1,1,3.35,0v104.54a1.64,1.64,0,0,1-.49,1.18L1784.48,1670v223.56a1.66,1.66,0,0,1-.49,1.19l-71.66,71.66A1.71,1.71,0,0,1,1711.15,1966.87Z"/><path class="cls-4" d="M1710.3,1858.11a1.67,1.67,0,0,1-1.67-1.67v-39.78l-56.35-56.34h-66.75a1.68,1.68,0,0,1-1.68-1.68V1647.35a1.68,1.68,0,0,1,3.36,0V1757H1653a1.66,1.66,0,0,1,1.19.5l57.33,57.32a1.71,1.71,0,0,1,.49,1.19v40.47A1.68,1.68,0,0,1,1710.3,1858.11Z"/><path class="cls-4" d="M1368.86,2135.48a1.67,1.67,0,0,1-1.19-.49l-37.93-37.94a1.65,1.65,0,0,1-.5-1.18v-79.25a1.67,1.67,0,0,1,.5-1.19l156.81-156.81a1.68,1.68,0,1,1,2.37,2.37L1332.6,2017.31v77.86l37.44,37.45a1.67,1.67,0,0,1,0,2.37A1.63,1.63,0,0,1,1368.86,2135.48Z"/><path class="cls-4" d="M1442.21,2102.6a1.68,1.68,0,0,1-1.19-2.86L1560.74,1980a1.64,1.64,0,0,1,1.18-.49h91a1.68,1.68,0,1,1,0,3.35h-90.35l-119.23,119.22A1.63,1.63,0,0,1,1442.21,2102.6Z"/><path class="cls-4" d="M1416.91,2031.22a1.68,1.68,0,0,1-1.18-2.86l121.4-121.4a1.66,1.66,0,0,1,1.19-.49h137.13a1.68,1.68,0,1,1,0,3.35H1539L1418.1,2030.73A1.67,1.67,0,0,1,1416.91,2031.22Z"/><path class="cls-4" d="M1657.47,1837.88H1581a1.68,1.68,0,0,1-1.18-.49l-32.6-32.6a1.68,1.68,0,0,1,2.37-2.37l32.11,32.11h75.74a1.68,1.68,0,1,1,0,3.35Z"/><path class="cls-4" d="M1705.24,1723.22a1.68,1.68,0,0,1-1.67-1.68v-89.36a1.68,1.68,0,0,1,.5-1.2l141.64-138.26a1.67,1.67,0,1,1,2.34,2.39l-141.13,137.78v88.65A1.68,1.68,0,0,1,1705.24,1723.22Z"/><path class="cls-4" d="M1626,1583.83a1.68,1.68,0,0,1-1.19-2.86l65.2-65.2a1.68,1.68,0,0,1,1.18-.49h56.21a1.68,1.68,0,1,1,0,3.35h-55.51l-64.71,64.71A1.63,1.63,0,0,1,1626,1583.83Z"/><path class="cls-4" d="M1167.37,2127.9a1.68,1.68,0,0,1-1.68-1.68V1998.77l-48.41-48.41a1.71,1.71,0,0,1-.49-1.19V1674.33a1.68,1.68,0,0,1,1.68-1.67h122.39l61.9-61.9a1.67,1.67,0,0,1,2.37,0,1.68,1.68,0,0,1,0,2.37l-62.39,62.39a1.69,1.69,0,0,1-1.19.49H1120.14v272.47l48.41,48.41a1.64,1.64,0,0,1,.49,1.18v128.15A1.68,1.68,0,0,1,1167.37,2127.9Z"/><path class="cls-4" d="M1211.2,1908.7a1.83,1.83,0,0,1-.64-.13,1.68,1.68,0,0,1-1-1.55V1745.15a1.68,1.68,0,0,1,1.67-1.68h70.13l90.56-90.56a1.68,1.68,0,0,1,2.37,0,1.67,1.67,0,0,1,0,2.37l-91,91a1.67,1.67,0,0,1-1.19.5h-69.14V1903l140.46-140.46a1.68,1.68,0,0,1,2.37,0,1.67,1.67,0,0,1,0,2.37l-143.32,143.33A1.68,1.68,0,0,1,1211.2,1908.7Z"/><path class="cls-4" d="M1244.93,1004.92h-158.5a1.68,1.68,0,0,1-1.68-1.67V923l-29.86-29.86a1.68,1.68,0,0,1,0-2.37,1.67,1.67,0,0,1,2.37,0l30.35,30.35a1.65,1.65,0,0,1,.5,1.18v79.26h156.12l53-53V932.43a1.68,1.68,0,1,1,3.35,0v16.86a1.68,1.68,0,0,1-.49,1.18l-54,54A1.64,1.64,0,0,1,1244.93,1004.92Z"/><path class="cls-4" d="M1227.22,945.06h-75a1.68,1.68,0,1,1,0-3.35h74.34l20.58-20.58a1.68,1.68,0,0,1,2.38,2.37l-21.08,21.07A1.65,1.65,0,0,1,1227.22,945.06Z"/></g></g></g></g></g></g></svg>