<svg xmlns="http://www.w3.org/2000/svg" viewBox="0 0 51.89 51.9"><defs><style>.cls-1{fill:#fff;}</style></defs><title>icon_instagram</title><g id="圖層_2" data-name="圖層 2"><g id="切圖用"><path class="cls-1" d="M41.24,0H10.66A10.66,10.66,0,0,0,0,10.66V41.24A10.66,10.66,0,0,0,10.66,51.9H41.24A10.66,10.66,0,0,0,51.89,41.24V10.66A10.65,10.65,0,0,0,41.24,0Zm4.28,33.46A12.06,12.06,0,0,1,33.46,45.52h-15A12.06,12.06,0,0,1,6.38,33.46v-15A12.06,12.06,0,0,1,18.44,6.38h15A12.06,12.06,0,0,1,45.52,18.44Z"/><path class="cls-1" d="M26.47,19.81A6.21,6.21,0,1,0,32.67,26,6.2,6.2,0,0,0,26.47,19.81Z"/><path class="cls-1" d="M32,10.13H19.88a9.76,9.76,0,0,0-9.75,9.75V32a9.75,9.75,0,0,0,9.75,9.74H32A9.74,9.74,0,0,0,41.76,32V19.88A9.75,9.75,0,0,0,32,10.13ZM26.47,36.32A10.31,10.31,0,1,1,36.78,26,10.31,10.31,0,0,1,26.47,36.32Zm9.6-18.15a2.63,2.63,0,1,1,2.62-2.62A2.62,2.62,0,0,1,36.07,18.17Z"/></g></g></svg>