<svg xmlns="http://www.w3.org/2000/svg" viewBox="0 0 51.9 51.9"><defs><style>.cls-1{fill:#fff;}</style></defs><title>icon_twitter</title><g id="圖層_2" data-name="圖層 2"><g id="切圖用"><path class="cls-1" d="M41.23,0H10.66A10.66,10.66,0,0,0,0,10.66V41.24A10.66,10.66,0,0,0,10.66,51.9H41.23A10.67,10.67,0,0,0,51.9,41.24V10.66A10.67,10.67,0,0,0,41.23,0Zm-.39,18.93q0,.48,0,1c0,9.79-7.46,21.1-21.1,21.1A20.94,20.94,0,0,1,8.4,37.65a14.83,14.83,0,0,0,11-3.07,7.43,7.43,0,0,1-6.93-5.15,7.23,7.23,0,0,0,1.4.14,7.4,7.4,0,0,0,2-.27,7.41,7.41,0,0,1-6-7.27v-.09a7.37,7.37,0,0,0,3.36.93A7.41,7.41,0,0,1,10.92,13,21,21,0,0,0,26.2,20.72,7.89,7.89,0,0,1,26,19,7.41,7.41,0,0,1,38.84,14a15.2,15.2,0,0,0,4.71-1.81,7.47,7.47,0,0,1-3.27,4.11,14.85,14.85,0,0,0,4.26-1.17A15.17,15.17,0,0,1,40.84,18.93Z"/></g></g></svg>