<svg xmlns="http://www.w3.org/2000/svg" viewBox="0 0 51.89 51.89"><defs><style>.cls-1{fill:#fff;}</style></defs><title>icon_facebook</title><g id="圖層_2" data-name="圖層 2"><g id="切圖用"><path class="cls-1" d="M41.24,0H10.66A10.66,10.66,0,0,0,0,10.66V41.23A10.66,10.66,0,0,0,10.66,51.89H28.14V31.25H21.05v-8h7.09V17.62h0c0-5.41,2-7.25,2-7.25a9.71,9.71,0,0,1,7.38-3.63h7.18v7.52H39.9a3.29,3.29,0,0,0-3.59,3.36h0v5.64h8l-1,8h-7V51.89h4.92A10.65,10.65,0,0,0,51.89,41.23V10.66A10.65,10.65,0,0,0,41.24,0Z"/></g></g></svg>