<svg xmlns="http://www.w3.org/2000/svg" viewBox="0 0 51.89 51.89"><defs><style>.cls-1{fill:#fff;}</style></defs><title>icon_youtube</title><g id="圖層_2" data-name="圖層 2"><g id="切圖用"><path class="cls-1" d="M41.24,0H10.66A10.66,10.66,0,0,0,0,10.66V41.23A10.66,10.66,0,0,0,10.66,51.89H41.24A10.65,10.65,0,0,0,51.89,41.23V10.66A10.65,10.65,0,0,0,41.24,0Zm4.21,30.65c0,4.92-1.68,8.9-6.6,8.9H13.57c-4.92,0-7.12-4-7.12-8.9V21.24c0-4.91,2-8.9,6.91-8.9h25.7c4.92,0,6.39,4,6.39,8.9Z"/><polygon class="cls-1" points="22.04 20.7 22.04 20.71 22.04 31.72 32.66 26.18 22.04 20.63 22.04 20.7"/></g></g></svg>