<?xml version="1.0" encoding="utf-8"?>
<!-- Generator: Adobe Illustrator 22.1.0, SVG Export Plug-In . SVG Version: 6.00 Build 0)  -->
<svg version="1.1" id="圖層_1" xmlns="http://www.w3.org/2000/svg" xmlns:xlink="http://www.w3.org/1999/xlink" x="0px" y="0px"
	 viewBox="0 0 1965 738" style="enable-background:new 0 0 1965 738;" xml:space="preserve">
<style type="text/css">
	.st0{fill:none;stroke:#00AEEF;stroke-width:1.63;stroke-miterlimit:10;}
	.st1{opacity:0.3;fill:#FFFFFF;enable-background:new    ;}
	.st2{fill:url(#SVGID_1_);}
	.st3{fill:url(#SVGID_2_);}
</style>
<title>index_banner_bg</title>
<g>
	<g id="圖層_2_1_">
		<g id="轉存用">
			
				<image style="overflow:visible;opacity:0.75;enable-background:new    ;" width="1966" height="739" xlink:href="DDC5FF5.png"  transform="matrix(0.9986 0 0 0.9986 117.8243 698.965)">
			</image>
			<polyline class="st0" points="1963.9,1386.9 2014,1386.9 2031.5,1369.5 2031.5,1319.4 			"/>
			<polyline class="st0" points="2031.5,816.7 2031.5,766.7 2014,749.2 1963.9,749.2 			"/>
			<polyline class="st0" points="235.1,749.2 185.1,749.2 167.6,766.7 167.6,816.7 			"/>
			<polyline class="st0" points="167.6,1319.4 167.6,1369.5 185.1,1386.9 235.1,1386.9 			"/>
			<path class="st1" d="M209.3,766.7h1780.5l18.7,18.7v565.4l-18.7,18.7H209.3l-18.7-18.7V785.4L209.3,766.7z"/>
			<g>
				<g>
					
						<radialGradient id="SVGID_1_" cx="-1930.4144" cy="2308.2124" r="1882.88" gradientTransform="matrix(5.939537e-17 0.97 1.02 -6.245699e-17 -1278.0598 2648.1702)" gradientUnits="userSpaceOnUse">
						<stop  offset="0" style="stop-color:#00AEEF"/>
						<stop  offset="0.47" style="stop-color:#222128;stop-opacity:0"/>
					</radialGradient>
					<rect x="190.5" y="766.7" class="st2" width="1818.2" height="602.8"/>
				</g>
			</g>
			<g>
				<g>
					
						<radialGradient id="SVGID_2_" cx="6698.6143" cy="2308.2124" r="1882.88" gradientTransform="matrix(5.939537e-17 -0.97 1.02 6.245699e-17 -1278.0601 7842.52)" gradientUnits="userSpaceOnUse">
						<stop  offset="0" style="stop-color:#00AEEF"/>
						<stop  offset="0.47" style="stop-color:#222128;stop-opacity:0"/>
					</radialGradient>
					<rect x="190.5" y="766.7" class="st3" width="1818.2" height="602.8"/>
				</g>
			</g>
		</g>
	</g>
</g>
</svg>
