<svg xmlns="http://www.w3.org/2000/svg" viewBox="0 0 793.62 447.37"><defs><style>.cls-1{fill:#fff;}</style></defs><title>index_banner</title><g id="圖層_2" data-name="圖層 2"><g id="轉存用"><path class="cls-1" d="M46.79,268.76A12.17,12.17,0,0,1,59,280.89v46.87H46.14v-19H12.7v19H0V280.89a12.1,12.1,0,0,1,12.13-12.13ZM46.14,296V281.54H12.7V296Z"/><path class="cls-1" d="M76.62,268.76H89.4v59H76.62Z"/><path class="cls-1" d="M185.19,292.12v35.64h-36.3A11.94,11.94,0,0,1,137,315.88V297.69h35.64v-4.92H137V280.23h36.3A12,12,0,0,1,185.19,292.12Zm-12.54,16.55H149.54v6.55h23.11Z"/><path class="cls-1" d="M249.68,292.12v35.64H237.14v-35H214v35H201.49V280.23h36.3A12,12,0,0,1,249.68,292.12Z"/><path class="cls-1" d="M312.44,264.66v63.1H276.06a12,12,0,0,1-11.88-11.88V292.12a12,12,0,0,1,11.88-11.89h23.85V264.66ZM276.8,315.22h23.11V292.77H276.8Z"/><path class="cls-1" d="M411.26,268.76a12.17,12.17,0,0,1,12.21,12.13v46.87H410.61v-19H377.18v19H364.47V280.89a12.1,12.1,0,0,1,12.13-12.13ZM410.61,296V281.54H377.18V296Z"/><path class="cls-1" d="M499.93,296.21a12.22,12.22,0,0,1-12.21,12.13h-.58c4.18,4.92,8.69,10.16,12.79,15.08v4.34H486.82l-16.31-19.42-16.88.08c.16,0,.24.17.24.49a.4.4,0,0,1-.24-.08v18.93h-12.7V268.84h46.79A12.22,12.22,0,0,1,499.93,281Zm-46.3-.65h33.43v-14H453.63Z"/><path class="cls-1" d="M64.24,362.7v13.92H39.08v50.32H25.16V376.62H0V362.7Z"/><path class="cls-1" d="M131.87,388.13v19.81H93.06v5.35h38.81v13.65H92.35A13.07,13.07,0,0,1,79.41,414V388.13a13.07,13.07,0,0,1,12.94-12.94h26.59A13,13,0,0,1,131.87,388.13ZM118.22,396v-7.14H93.06V396Z"/><path class="cls-1" d="M161.5,388.84v24.45h38.81v13.65H160.78A13.06,13.06,0,0,1,147.85,414V388.13a13.06,13.06,0,0,1,12.93-12.94h39.44v13.65Z"/><path class="cls-1" d="M268.92,388.13v38.81H255.27v-38.1H230.11v38.1H216.46v-68.7h13.65v16.95H256A13.06,13.06,0,0,1,268.92,388.13Z"/><path class="cls-1" d="M337.45,388.13v38.81H323.8v-38.1H298.64v38.1H285V375.19h39.52A13,13,0,0,1,337.45,388.13Z"/><path class="cls-1" d="M393,375.19A13,13,0,0,1,406,388.13V414A13,13,0,0,1,393,426.94H366.45A13.07,13.07,0,0,1,353.51,414V388.13a13.07,13.07,0,0,1,12.94-12.94Zm-25.88,38.1h25.16V388.84H367.16Z"/><path class="cls-1" d="M435.6,358.15v55.14H446v13.65H434.79A13.06,13.06,0,0,1,421.86,414V358.15Z"/><path class="cls-1" d="M501.18,375.19a13,13,0,0,1,12.93,12.94V414a13,13,0,0,1-12.93,12.94H474.59A13.07,13.07,0,0,1,461.65,414V388.13a13.07,13.07,0,0,1,12.94-12.94Zm-25.88,38.1h25.16V388.84H475.3Z"/><path class="cls-1" d="M571,447.37H539.63V433.63h30.7v-6.69H544.45a13.08,13.08,0,0,1-13-12.94V388.13a13.08,13.08,0,0,1,13-12.94H571A13,13,0,0,1,584,388.13v46.31A13,13,0,0,1,571,447.37Zm-26-34.08h25.25V388.84H545.08Z"/><path class="cls-1" d="M639.21,445.5H607.8V431.76h30.7v-4.82H612.62a13.08,13.08,0,0,1-13-12.94V375.37h13.66v37.92H638.5V375.37h13.65v57.19A13,13,0,0,1,639.21,445.5Z"/><path class="cls-1" d="M70.9,193.6,55.54,234.28h-5l-15.14-33.6L21,234.28H16C10.52,220.46,5.4,207.34,0,193.6H6.17l12.34,30.3,13.12-30.3H39.2l14,30.23,11.5-30.23Z"/><path class="cls-1" d="M89.06,180.27V186H83.31v-5.75ZM83.31,193.6h5.75v40.68H83.31Z"/><path class="cls-1" d="M110.73,199.35v26.44a2.79,2.79,0,0,0,2.74,2.73h14.87v5.76H113.47a8.43,8.43,0,0,1-8.49-8.49V180.27h5.75V193.6h17.61v5.75Z"/><path class="cls-1" d="M182.61,202.08v32.2h-5.75v-32.2a2.78,2.78,0,0,0-2.73-2.73H149.72a2.79,2.79,0,0,0-2.8,2.73v32.2h-5.75v-54h5.75V193.6h27.21A8.51,8.51,0,0,1,182.61,202.08Z"/><path class="cls-1" d="M10.78,106.5V109H25.92v10.77H10.78v30.08H0v-44A10.27,10.27,0,0,1,10.28,95.66H25.92V106.5Z"/><path class="cls-1" d="M69.79,109A10.26,10.26,0,0,1,80,119.25v20.42a10.27,10.27,0,0,1-10.22,10.22h-21a10.32,10.32,0,0,1-10.22-10.22V119.25A10.31,10.31,0,0,1,48.81,109ZM49.37,139.11H69.23v-19.3H49.37Z"/><path class="cls-1" d="M125.36,109v10.77h-22v30.08H92.54V119.25A10.32,10.32,0,0,1,102.83,109Z"/><path class="cls-1" d="M218.47,99.18v50.71H207.55V130H177.62v19.87H166.71V99.18h10.91V119h29.93V99.18Z"/><path class="cls-1" d="M274.82,109v30.63a10.27,10.27,0,0,1-10.22,10.22h-21a10.27,10.27,0,0,1-10.22-10.22V109h10.78v30.07H264V109Z"/><path class="cls-1" d="M346.94,119.25v30.64H336.23V119.81H322.71v30.08H311.86V119.81H298.34v30.08H287.56V109h49.16A10.26,10.26,0,0,1,346.94,119.25Z"/><path class="cls-1" d="M402.58,119.25v30.64h-31.2a10.26,10.26,0,0,1-10.21-10.22V124H391.8v-4.23H361.17V109h31.2A10.26,10.26,0,0,1,402.58,119.25ZM391.8,133.48H371.94v5.63H391.8Z"/><path class="cls-1" d="M458,119.25v30.64H447.23V119.81H427.37v30.08H416.59V109h31.2A10.26,10.26,0,0,1,458,119.25Z"/><path class="cls-1" d="M549.49,110.16H513.72V119h28.8v11h-28.8v8.88h35.77v11H502.66V99.18h46.83Z"/><path class="cls-1" d="M596.05,109v10.77H574v30.08H563.23V119.25A10.32,10.32,0,0,1,573.51,109Z"/><path class="cls-1" d="M640.14,109v10.77h-22v30.08H607.32V119.25A10.32,10.32,0,0,1,617.6,109Z"/><path class="cls-1" d="M682.89,109a10.26,10.26,0,0,1,10.21,10.21v20.42a10.27,10.27,0,0,1-10.21,10.22h-21a10.31,10.31,0,0,1-10.21-10.22V119.25A10.31,10.31,0,0,1,661.9,109Zm-20.43,30.07h19.86v-19.3H662.46Z"/><path class="cls-1" d="M738.46,109v10.77H716.41v30.08H705.64V119.25A10.32,10.32,0,0,1,715.92,109Z"/><path class="cls-1" d="M792.33,121.29H781.49v-1.48H761.63V124h20.42a10.27,10.27,0,0,1,10.28,10.21v5.42a10.28,10.28,0,0,1-10.28,10.22h-21a10.31,10.31,0,0,1-10.21-10.22v-2h10.78v1.48h19.86v-4.23H761.06a10.31,10.31,0,0,1-10.21-10.21v-5.42A10.31,10.31,0,0,1,761.06,109h21a10.27,10.27,0,0,1,10.28,10.21Z"/><path class="cls-1" d="M58.58,28.27a11.18,11.18,0,0,1-.59,3.9,13.32,13.32,0,0,1,3,8V52.74A12.57,12.57,0,0,1,48.34,65.27H0V4.32H46.05A12.55,12.55,0,0,1,58.58,16.85Zm-45.46-.59H45.29V17.52H13.12Zm0,24.38H47.66V40.89H13.12Z"/><path class="cls-1" d="M128,28.44v18.8H91.17v5.07H128v13H90.49A12.4,12.4,0,0,1,78.22,53V28.44A12.4,12.4,0,0,1,90.49,16.17h25.23A12.34,12.34,0,0,1,128,28.44ZM115,35.89V29.12H91.17v6.77Z"/><path class="cls-1" d="M194,30.9H181V29.12H157.12V34.2h24.54A12.36,12.36,0,0,1,194,46.47V53a12.36,12.36,0,0,1-12.36,12.28H156.44A12.4,12.4,0,0,1,144.16,53V50.54h13v1.77H181V47.24H156.44A12.4,12.4,0,0,1,144.16,35V28.44a12.4,12.4,0,0,1,12.28-12.27h25.22A12.36,12.36,0,0,1,194,28.44Z"/><path class="cls-1" d="M224.08,29.12V52.31h18.2v13h-18.8A12.36,12.36,0,0,1,211.12,53V1.61h13V16.17h18.2v13Z"/><path class="cls-1" d="M354.27,22.52H341v-5H306.44V28.19h35.3a12.56,12.56,0,0,1,12.53,12.53v12a12.56,12.56,0,0,1-12.53,12.53H305.85a12.5,12.5,0,0,1-12.53-12.53V47.07h13.12v5H341V41.39H305.85a12.5,12.5,0,0,1-12.53-12.52v-12A12.5,12.5,0,0,1,305.85,4.32h35.89a12.55,12.55,0,0,1,12.53,12.53Z"/><path class="cls-1" d="M408.87,16.17a12.34,12.34,0,0,1,12.28,12.27V53a12.34,12.34,0,0,1-12.28,12.28H383.65A12.4,12.4,0,0,1,371.37,53V28.44a12.4,12.4,0,0,1,12.28-12.27ZM384.32,52.31H408.2V29.12H384.32Z"/><path class="cls-1" d="M449.25,0V52.31h9.91v13H448.49A12.39,12.39,0,0,1,436.22,53V0Z"/><path class="cls-1" d="M524,16.17V53a12.34,12.34,0,0,1-12.27,12.28H486.5A12.35,12.35,0,0,1,474.22,53V16.17h13V52.31h23.87V16.17Z"/><path class="cls-1" d="M552.36,29.12V52.31h18.2v13H551.77A12.36,12.36,0,0,1,539.41,53V1.61h13V16.17h18.2v13Z"/><path class="cls-1" d="M598.92.08v13H586V.08ZM586,16.17h12.95v49.1H586Z"/><path class="cls-1" d="M651.23,16.17a12.34,12.34,0,0,1,12.28,12.27V53a12.34,12.34,0,0,1-12.28,12.28H626A12.4,12.4,0,0,1,613.73,53V28.44A12.4,12.4,0,0,1,626,16.17ZM626.68,52.31h23.88V29.12H626.68Z"/><path class="cls-1" d="M728.35,28.44V65.27h-13V29.12H691.53V65.27H678.58V16.17h37.5A12.34,12.34,0,0,1,728.35,28.44Z"/><path class="cls-1" d="M793.62,30.9h-13V29.12H756.71V34.2h24.55a12.36,12.36,0,0,1,12.36,12.27V53a12.36,12.36,0,0,1-12.36,12.28H756A12.4,12.4,0,0,1,743.76,53V50.54h13v1.77h23.88V47.24H756A12.4,12.4,0,0,1,743.76,35V28.44A12.4,12.4,0,0,1,756,16.17h25.22a12.36,12.36,0,0,1,12.36,12.27Z"/></g></g></svg>