<svg xmlns="http://www.w3.org/2000/svg" viewBox="0 0 112.78 140.24"><defs><style>.cls-1{fill:#fff;}</style></defs><title>logo</title><g id="圖層_2" data-name="圖層 2"><g id="切圖用"><polygon class="cls-1" points="23.34 89.28 33.76 89.28 28.63 77.41 23.34 89.28"/><path class="cls-1" d="M0,0V140.24H112.78V0ZM110.31,137.09a.55.55,0,0,1-.55.55H3a.55.55,0,0,1-.55-.55V2.9A.56.56,0,0,1,3,2.34h106.8a.56.56,0,0,1,.55.56V121.05l-1.11-.14V3.45H3.51V136.54H109.2V123.48l1.11-.2ZM92.16,124l-39.92,9.43,54.42-9.47V134H6V109.59H106.66v11L26.34,110.47ZM37.22,97.37c0-.16-.29-.79-.77-1.91l-1.83-4.3H22.45L21,94.52a7.35,7.35,0,0,0-.71,2.77,2.28,2.28,0,0,0,1.17,2.13,9.42,9.42,0,0,0,3.38.61v1H13.37v-1a5,5,0,0,0,3.05-1.53,20.33,20.33,0,0,0,2.95-5.2L31.7,65.79h.48L44.61,94.06a17.39,17.39,0,0,0,2.93,5.06A3.92,3.92,0,0,0,50,100v1H33.3v-1H34a5.25,5.25,0,0,0,2.82-.55,1.39,1.39,0,0,0,.56-1.17A3.13,3.13,0,0,0,37.22,97.37ZM6,54.73V5.92H54.8V54.73Zm100.67,3V106.6H57.85V57.72Zm-48.81-3V5.92h48.81V54.73Z"/><path class="cls-1" d="M44.61,42.09,32.18,13.82H31.7L19.37,41.33a20.33,20.33,0,0,1-2.95,5.2,5.11,5.11,0,0,1-3.05,1.54V49H24.84v-.94a9.91,9.91,0,0,1-3.38-.61,2.31,2.31,0,0,1-1.17-2.14A7.35,7.35,0,0,1,21,42.55l1.45-3.36H34.62l1.83,4.3c.48,1.12.73,1.75.77,1.91a3.13,3.13,0,0,1,.15.94,1.36,1.36,0,0,1-.56,1.17,5.23,5.23,0,0,1-2.82.56H33.3V49H50v-.94a4,4,0,0,1-2.44-.92Q46.4,46.12,44.61,42.09ZM23.34,37.31l5.28-11.87,5.14,11.87Z"/><path class="cls-1" d="M90.88,16.21a24.69,24.69,0,0,0-9.94-1.67H65.51v.94h1.14A4.61,4.61,0,0,1,69,16a2.6,2.6,0,0,1,1.13,1.16,11.54,11.54,0,0,1,.28,3.3V43.11a12.18,12.18,0,0,1-.23,3.2A3,3,0,0,1,69,47.6a4.69,4.69,0,0,1-2.31.47H65.51V49H80.94a27.11,27.11,0,0,0,4.88-.31,22.71,22.71,0,0,0,5.94-1.87A14.72,14.72,0,0,0,96,43.63a15.38,15.38,0,0,0,3-5.06,18.6,18.6,0,0,0,1.17-6.7,18.74,18.74,0,0,0-2.38-9.43A14.71,14.71,0,0,0,90.88,16.21ZM88,44.23a7.7,7.7,0,0,1-6.48,2.9,4.1,4.1,0,0,1-2-.39,1.38,1.38,0,0,1-.68-.73,9.21,9.21,0,0,1-.21-2.62V16.49a16.52,16.52,0,0,1,6.08.77A8.83,8.83,0,0,1,89,21.48q2.09,4,2.09,10.6Q91.06,40.32,88,44.23Z"/><path class="cls-1" d="M73.52,69.85q1.58-1.47,5.06-1.47h2.49V95a10.29,10.29,0,0,1-.28,3.2,2.41,2.41,0,0,1-1,1.22,4.74,4.74,0,0,1-2.42.54H76.19v.94h18v-.94H93.09a4.59,4.59,0,0,1-2.32-.5,2.66,2.66,0,0,1-1.15-1.16,11,11,0,0,1-.29-3.3V68.38H91.9a8.58,8.58,0,0,1,3.38.46A6.81,6.81,0,0,1,98,71.09a14.66,14.66,0,0,1,1.8,4.63h.92V66.4h-31v9.32h1A9.74,9.74,0,0,1,73.52,69.85Z"/><path class="cls-1" d="M21.7,132.78l12.16-2.38-18.5-17.35Q18.52,122.92,21.7,132.78Z"/><path class="cls-1" d="M49.39,127.42,63.62,125,22.88,110.2Z"/></g></g></svg>