<svg xmlns="http://www.w3.org/2000/svg" viewBox="0 0 216.98 42.15"><defs><style>.cls-1{fill:#fff;}.cls-2{opacity:0.2;}</style></defs><title>資產 11</title><g id="圖層_2" data-name="圖層 2"><g id="切圖用"><path class="cls-1" d="M211.33,1.65l4,4V36.5l-4,4H5.65l-4-4V5.65l4-4H211.33M212,0H5L4.48.48,2.21,2.76.48,4.48,0,5V37.19l.48.48,1.46,1.45,2.54,2.55.49.48H212l.49-.48L215,39.12l1.46-1.45.48-.48V5l-.48-.49L214,1.94,212.5.48,212,0Z"/><g class="cls-2"><path class="cls-1" d="M211.33,40.5H5.65l-4-4V5.65l4-4H211.33l4,4V36.5Z"/></g></g></g></svg>