<svg xmlns="http://www.w3.org/2000/svg" viewBox="0 0 216.98 56.5"><defs><style>.cls-1{fill:#fff;}.cls-2{opacity:0.2;}</style></defs><title>organization_bg2_1</title><g id="圖層_2" data-name="圖層 2"><g id="切圖用"><path class="cls-1" d="M211.33,1.65l4,4v45.2c-1.56,1.56-2.44,2.43-4,4H5.65l-4-4V5.65l4-4H211.33M212,0H5L4.48.48,4.41.55.48,4.48,0,5V51.53L.48,52l1.2,1.2L4.48,56,5,56.5H212l.49-.49,2.69-2.69L216.5,52l.48-.48V5l-.48-.49-4-4L212,0Z"/><g class="cls-2"><path class="cls-1" d="M211.33,54.85H5.65l-4-4V5.65l4-4H211.33l4,4v45.2Z"/></g></g></g></svg>